<?xml version="1.0" standalone="no"?>
<!DOCTYPE svg PUBLIC "-//W3C//DTD SVG 20010904//EN"
 "http://www.w3.org/TR/2001/REC-SVG-20010904/DTD/svg10.dtd">
<svg version="1.0" xmlns="http://www.w3.org/2000/svg"
 width="260.000000pt" height="260.000000pt" viewBox="0 0 260.000000 260.000000"
 preserveAspectRatio="xMidYMid meet">
<metadata>
Created by potrace 1.11, written by Peter Selinger 2001-2013
</metadata>
<g transform="translate(0.000000,260.000000) scale(0.100000,-0.100000)"
fill="#000000" stroke="none">
<path d="M1185 2229 c-60 -105 -121 -210 -134 -233 -14 -22 -32 -54 -41 -71
-17 -33 -60 -107 -142 -245 -18 -30 -37 -64 -43 -75 -16 -28 -269 -466 -349
-604 -36 -63 -65 -115 -63 -117 3 -3 45 8 287 78 58 16 134 38 170 48 36 10
106 30 155 45 50 14 97 28 105 30 26 6 744 213 765 220 11 4 26 9 33 11 9 3 7
15 -11 46 -27 48 -123 215 -138 238 -15 25 -302 524 -313 545 -36 67 -161 275
-166 275 -3 0 -54 -86 -115 -191z"/>
<path d="M1440 913 c-476 -239 -570 -283 -596 -278 -18 2 -76 16 -129 30 -54
14 -107 27 -119 29 -29 7 -227 55 -246 61 -11 4 -27 -15 -53 -62 -21 -38 -42
-75 -47 -83 -31 -48 -200 -344 -200 -350 0 -4 -9 -19 -21 -34 -14 -18 -17 -26
-7 -27 35 -3 2554 -4 2560 -2 6 3 -32 73 -122 228 -9 17 -111 192 -225 390
-114 198 -213 365 -219 371 -8 8 -160 -64 -576 -273z"/>
</g>
</svg>
